<?xml version="1.0" encoding="UTF-8"?>
<svg xmlns="http://www.w3.org/2000/svg" xmlns:xlink="http://www.w3.org/1999/xlink" width="29px" height="29px" viewBox="0 0 29 28" version="1.1">
<g id="surface1">
<path style=" stroke:none;fill-rule:nonzero;fill:rgb(90.196079%,90.196079%,90.196079%);fill-opacity:1;" d="M 8.472656 13.902344 C 8.472656 17.085938 11.144531 19.664062 14.441406 19.664062 C 17.742188 19.664062 20.414062 17.085938 20.414062 13.902344 C 20.414062 10.71875 17.742188 8.136719 14.441406 8.136719 C 11.144531 8.136719 8.472656 10.71875 8.472656 13.902344 Z M 8.472656 13.902344 "/>
<path style=" stroke:none;fill-rule:nonzero;fill:rgb(100%,100%,100%);fill-opacity:1;" d="M 14.441406 9.9375 C 12.175781 9.9375 10.335938 11.71875 10.335938 13.902344 C 10.335938 16.085938 12.179688 17.867188 14.441406 17.867188 C 16.707031 17.867188 18.550781 16.085938 18.550781 13.902344 C 18.550781 11.71875 16.707031 9.9375 14.441406 9.9375 Z M 14.441406 9.9375 "/>
<path style=" stroke:none;fill-rule:nonzero;fill:rgb(2.352941%,95.294118%,100%);fill-opacity:1;" d="M 14.441406 9.390625 C 11.867188 9.390625 9.769531 11.414062 9.769531 13.902344 C 9.769531 16.390625 11.867188 18.414062 14.441406 18.414062 C 17.019531 18.414062 19.117188 16.390625 19.117188 13.902344 C 19.117188 11.414062 17.019531 9.390625 14.441406 9.390625 Z M 14.441406 17.871094 C 12.175781 17.871094 10.335938 16.089844 10.335938 13.90625 C 10.335938 11.71875 12.179688 9.941406 14.441406 9.941406 C 16.707031 9.941406 18.550781 11.71875 18.550781 13.90625 C 18.550781 16.089844 16.707031 17.871094 14.441406 17.871094 Z M 14.441406 17.871094 "/>
<path style=" stroke:none;fill-rule:nonzero;fill:rgb(0%,35.686275%,100%);fill-opacity:1;" d="M 22.527344 13.355469 L 21.523438 13.355469 C 21.390625 11.726562 20.671875 10.21875 19.464844 9.050781 C 18.253906 7.882812 16.6875 7.1875 15 7.0625 L 15 6.0625 C 15 5.761719 14.742188 5.515625 14.433594 5.515625 C 14.121094 5.515625 13.867188 5.761719 13.867188 6.0625 L 13.867188 7.066406 C 12.1875 7.195312 10.621094 7.890625 9.417969 9.050781 C 8.210938 10.214844 7.492188 11.726562 7.359375 13.355469 L 6.398438 13.355469 C 6.089844 13.355469 5.832031 13.601562 5.832031 13.902344 C 5.832031 14.203125 6.089844 14.449219 6.398438 14.449219 L 7.363281 14.449219 C 7.496094 16.074219 8.210938 17.585938 9.421875 18.753906 C 10.625 19.914062 12.1875 20.609375 13.867188 20.738281 L 13.867188 21.707031 C 13.867188 22.007812 14.125 22.253906 14.433594 22.253906 C 14.746094 22.253906 15 22.007812 15 21.707031 L 15 20.742188 C 16.6875 20.613281 18.257812 19.921875 19.46875 18.753906 C 20.671875 17.585938 21.394531 16.074219 21.527344 14.449219 L 22.527344 14.449219 C 22.839844 14.449219 23.09375 14.203125 23.09375 13.902344 C 23.09375 13.601562 22.839844 13.355469 22.527344 13.355469 Z M 15 19.640625 L 15 18.222656 C 15 17.921875 14.746094 17.675781 14.433594 17.675781 C 14.125 17.675781 13.867188 17.921875 13.867188 18.222656 L 13.867188 19.636719 C 11.035156 19.375 8.769531 17.1875 8.5 14.449219 L 9.992188 14.449219 C 10.304688 14.449219 10.558594 14.203125 10.558594 13.902344 C 10.558594 13.601562 10.304688 13.355469 9.992188 13.355469 L 8.5 13.355469 C 8.769531 10.613281 11.035156 8.425781 13.867188 8.164062 L 13.867188 9.539062 C 13.867188 9.839844 14.125 10.085938 14.433594 10.085938 C 14.746094 10.085938 15 9.839844 15 9.539062 L 15 8.164062 C 17.847656 8.417969 20.117188 10.613281 20.386719 13.355469 L 18.984375 13.355469 C 18.675781 13.355469 18.417969 13.601562 18.417969 13.902344 C 18.417969 14.203125 18.675781 14.449219 18.984375 14.449219 L 20.386719 14.449219 C 20.117188 17.195312 17.84375 19.386719 15 19.640625 Z M 15 19.640625 "/>
<path style=" stroke:none;fill-rule:nonzero;fill:rgb(0%,35.686275%,100%);fill-opacity:1;" d="M 24.933594 4.320312 C 24.933594 4.019531 24.679688 3.773438 24.367188 3.773438 L 14.441406 3.773438 C 13.027344 3.773438 11.652344 4.042969 10.359375 4.570312 C 9.109375 5.082031 7.988281 5.8125 7.027344 6.742188 C 6.0625 7.671875 5.308594 8.753906 4.777344 9.957031 C 4.230469 11.207031 3.953125 12.535156 3.953125 13.902344 C 3.953125 14.203125 4.207031 14.449219 4.519531 14.449219 C 4.832031 14.449219 5.085938 14.203125 5.085938 13.902344 C 5.085938 8.917969 9.285156 4.867188 14.441406 4.867188 L 22.410156 4.867188 L 22.410156 6.359375 C 22.410156 6.601562 22.710938 6.722656 22.890625 6.550781 L 24.792969 4.714844 C 24.835938 4.671875 24.863281 4.621094 24.871094 4.570312 C 24.910156 4.496094 24.933594 4.410156 24.933594 4.320312 Z M 24.367188 13.355469 C 24.054688 13.355469 23.800781 13.601562 23.800781 13.902344 C 23.800781 18.882812 19.601562 22.9375 14.441406 22.9375 L 6.523438 22.9375 L 6.523438 21.410156 C 6.523438 21.167969 6.21875 21.046875 6.039062 21.21875 L 4.140625 23.054688 C 4.113281 23.082031 4.089844 23.113281 4.074219 23.148438 C 4 23.238281 3.953125 23.355469 3.953125 23.484375 C 3.953125 23.785156 4.207031 24.03125 4.519531 24.03125 L 14.441406 24.03125 C 15.859375 24.03125 17.234375 23.765625 18.527344 23.238281 C 19.777344 22.726562 20.898438 21.996094 21.859375 21.066406 C 22.824219 20.136719 23.578125 19.054688 24.109375 17.847656 C 24.65625 16.597656 24.933594 15.269531 24.933594 13.90625 C 24.933594 13.601562 24.679688 13.355469 24.367188 13.355469 Z M 24.367188 13.355469 "/>
</g>
</svg>
